<?xml version="1.0" encoding="utf-8"?>
<svg version="1.1" xmlns:xlink="http://www.w3.org/1999/xlink" width="28px" height="28px" xmlns="http://www.w3.org/2000/svg">
  <g transform="matrix(1 0 0 1 -104 -258 )">
    <path d="M 22.7301136363636 12.90625  C 22.8494318181818 13.0255681818182  22.9090909090909 13.1780303030303  22.9090909090909 13.3636363636364  L 22.9090909090909 14.6363636363636  C 22.9090909090909 14.8219696969697  22.8494318181818 14.9744318181818  22.7301136363636 15.09375  C 22.6107954545455 15.2130681818182  22.4583333333333 15.2727272727273  22.2727272727273 15  L 5.72727272727273 15  C 5.54166666666667 15.2727272727273  5.38920454545455 15.2130681818182  5.26988636363636 15.09375  C 5.15056818181819 14.9744318181818  5.09090909090909 14.8219696969697  5.09090909090909 14.6363636363636  L 5.09090909090909 13.3636363636364  C 5.09090909090909 13.1780303030303  5.15056818181819 13.0255681818182  5.26988636363636 12.90625  C 5.38920454545455 12.7869318181818  5.54166666666667 12.7272727272727  5.72727272727273 13  L 22.2727272727273 13  C 22.4583333333333 12.7272727272727  22.6107954545455 12.7869318181818  22.7301136363636 12.90625  Z M 24.5198863636364 24.5198863636364  C 25.1429924242424 23.8967803030303  25.4545454545455 23.1477272727273  25 22.2727272727273  L 25 5.72727272727275  C 25.4545454545455 4.85227272727275  25.1429924242424 4.10321969696969  24.5198863636364 3.48011363636363  C 23.8967803030303 2.85700757575756  23.1477272727273 2.54545454545456  22.2727272727273 3  L 5.72727272727273 3  C 4.85227272727273 2.54545454545456  4.1032196969697 2.85700757575756  3.48011363636364 3.48011363636363  C 2.85700757575758 4.10321969696969  2.54545454545455 4.85227272727275  3 5.72727272727275  L 3 22.2727272727273  C 2.54545454545455 23.1477272727273  2.85700757575758 23.8967803030303  3.48011363636364 24.5198863636364  C 4.1032196969697 25.1429924242424  4.85227272727273 25.4545454545454  5.72727272727273 25  L 22.2727272727273 25  C 23.1477272727273 25.4545454545454  23.8967803030303 25.1429924242424  24.5198863636364 24.5198863636364  Z M 26.3196022727273 1.68039772727275  C 27.4398674242424 2.80066287878788  28 4.14962121212119  28 5.72727272727275  L 28 22.2727272727273  C 28 23.8503787878788  27.4398674242424 25.1993371212121  26.3196022727273 26.3196022727273  C 25.1993371212121 27.4398674242424  23.8503787878788 28  22.2727272727273 28  L 5.72727272727273 28  C 4.14962121212122 28  2.80066287878788 27.4398674242424  1.68039772727273 26.3196022727273  C 0.560132575757578 25.1993371212121  0 23.8503787878788  0 22.2727272727273  L 0 5.72727272727275  C 0 4.14962121212119  0.560132575757578 2.80066287878788  1.68039772727273 1.68039772727275  C 2.80066287878788 0.560132575757564  4.14962121212122 0  5.72727272727273 0  L 22.2727272727273 0  C 23.8503787878788 0  25.1993371212121 0.560132575757564  26.3196022727273 1.68039772727275  Z " fill-rule="nonzero" fill="#000000" stroke="none" transform="matrix(1 0 0 1 104 258 )" />
  </g>
</svg>